<svg xmlns="http://www.w3.org/2000/svg" viewBox="0 0 1200 700">
  <rect width="1200" height="700" fill="#132220"/>
  <g stroke="#9caf74" stroke-opacity=".22" stroke-width="1">
    <path d="M0 70 H1200 M0 140 H1200 M0 210 H1200 M0 280 H1200 M0 350 H1200 M0 420 H1200 M0 490 H1200 M0 560 H1200 M0 630 H1200"/>
    <path d="M100 0 V700 M200 0 V700 M300 0 V700 M400 0 V700 M500 0 V700 M600 0 V700 M700 0 V700 M800 0 V700 M900 0 V700 M1000 0 V700 M1100 0 V700"/>
  </g>
  <g fill="#3f5a35">
    <path d="M159 374 C210 290 323 288 385 361 C444 431 390 540 287 558 C185 575 109 456 159 374Z"/>
    <path d="M502 188 C580 91 727 122 781 228 C828 320 753 412 649 413 C530 415 436 270 502 188Z"/>
    <path d="M794 420 C879 337 1019 382 1048 484 C1077 588 959 653 855 613 C766 579 723 490 794 420Z"/>
  </g>
  <g fill="#5d7a45">
    <circle cx="282" cy="431" r="56"/>
    <circle cx="642" cy="272" r="72"/>
    <circle cx="905" cy="510" r="65"/>
  </g>
  <g fill="#b5d66b" opacity=".45" font-family="Consolas, monospace" font-size="26">
    <text x="35" y="45">TANOA - TACTICAL MAP</text>
    <text x="1010" y="665">GRID REF</text>
  </g>
</svg>
